<svg id="Lager_1" data-name="Lager 1" xmlns="http://www.w3.org/2000/svg" xmlns:xlink="http://www.w3.org/1999/xlink" viewBox="0 0 217.09 128.07"><defs><style>.cls-1{fill:url(#Namnlös_övertoning_19);}.cls-2{fill:url(#Namnlös_övertoning_19-3);}.cls-3{fill:url(#Namnlös_övertoning_19-5);}.cls-4{fill:url(#Namnlös_övertoning_19-6);}.cls-5{fill:url(#Namnlös_övertoning_19-7);}.cls-6{fill:url(#Namnlös_övertoning_19-8);}.cls-7{fill:url(#Namnlös_övertoning_19-9);}.cls-8{fill:url(#Namnlös_övertoning_19-10);}.cls-9{fill:url(#Namnlös_övertoning_19-11);}.cls-10{fill:url(#Namnlös_övertoning_19-12);}.cls-11{fill:url(#Namnlös_övertoning_19-24);}</style><linearGradient id="Namnlös_övertoning_19" x1="468.97" y1="362.9" x2="468.97" y2="232.06" gradientUnits="userSpaceOnUse"><stop offset="0" stop-color="#312783"/><stop offset="0.28" stop-color="#009fe3"/><stop offset="0.5" stop-color="#d9d9d9"/><stop offset="0.72" stop-color="#fcea10"/><stop offset="0.97" stop-color="#e6332a"/><stop offset="1" stop-color="#fff"/></linearGradient><linearGradient id="Namnlös_övertoning_19-3" x1="469.01" y1="362.9" x2="469.01" y2="232.06" xlink:href="#Namnlös_övertoning_19"/><linearGradient id="Namnlös_övertoning_19-5" x1="423.89" y1="362.9" x2="423.89" y2="232.06" xlink:href="#Namnlös_övertoning_19"/><linearGradient id="Namnlös_övertoning_19-6" x1="510.89" y1="362.9" x2="510.89" y2="232.06" xlink:href="#Namnlös_övertoning_19"/><linearGradient id="Namnlös_övertoning_19-7" x1="378.64" y1="362.9" x2="378.64" y2="232.06" xlink:href="#Namnlös_övertoning_19"/><linearGradient id="Namnlös_övertoning_19-8" x1="423.85" y1="362.9" x2="423.85" y2="232.06" xlink:href="#Namnlös_övertoning_19"/><linearGradient id="Namnlös_övertoning_19-9" x1="378.68" y1="362.9" x2="378.68" y2="232.06" xlink:href="#Namnlös_övertoning_19"/><linearGradient id="Namnlös_övertoning_19-10" x1="333.36" y1="362.9" x2="333.36" y2="232.06" xlink:href="#Namnlös_övertoning_19"/><linearGradient id="Namnlös_övertoning_19-11" x1="510.93" y1="362.9" x2="510.93" y2="232.06" xlink:href="#Namnlös_övertoning_19"/><linearGradient id="Namnlös_övertoning_19-12" x1="31.37" y1="58.62" x2="31.37" y2="4.9" xlink:href="#Namnlös_övertoning_19"/><linearGradient id="Namnlös_övertoning_19-24" x1="11.58" y1="58.62" x2="11.58" y2="4.9" xlink:href="#Namnlös_övertoning_19"/></defs><title>core score</title><rect x="24.55" width="13.65" height="62.35"/><rect x="4.68" width="13.65" height="62.35"/><path class="cls-1" d="M483.59,303.41H474q-3,0-3,3.27V323.1h-4.16V306.68q0-3.27-3-3.27h-9.55c-2,0-3,1.25-3,3.73v47.29q0,3.72,3.29,3.72h22.08a4.81,4.81,0,0,0,1.2-.14q1,0,6.41-5.82a4.69,4.69,0,0,0,2.23-4V335.63c0-.94-1.09-2.44-3.28-4.48v-.74l1-1.19a4.69,4.69,0,0,0,2.23-4V307.14C486.57,304.66,485.58,303.41,483.59,303.41ZM454.05,306h10c.2,0,.3.09.3.29v1.5H454.05Zm0,3.58h10.29v1.93H454.05Zm0,3.57h10.29v2.09H454.05Zm0,3.73h10.29v2.25H454.05Zm0,3.74h10.29v2.23H454.05Zm0,7.3H482l-1.19,1.35v1.19H454.05Zm0,3.58h26.71v.76l2.09,2.23h-28.8Zm29.83,4v13.43q-6.5,6.7-6.71,6.71H454.05V334.88h29.24C483.69,335.12,483.88,335.32,483.88,335.48Zm0-9.55c-.36.51-.6.76-.73.76h-29.1v-2.55h10.29v1.49h9.26v-1.49h10.28Zm0-3.13H473.6v-2.23h10.28Zm0-3.72H473.6v-2.25h10.28Zm0-3.89H473.6V313.1h10.28Zm0-3.73H473.6v-1.93h10.28Zm0-3.72H473.6v-1.5c0-.2.1-.29.3-.29h10Z" transform="translate(-311.95 -233.96)"/><path class="cls-1" d="M464.34,345.32h9.26v-9.39h-9.26Zm2.55-6.86h4.16v4.19h-4.16Z" transform="translate(-311.95 -233.96)"/><path class="cls-2" d="M484.38,243.81Q479,238,478,238a4.81,4.81,0,0,0-1.2-.14H454.69q-3.29,0-3.29,3.72v47.29c0,2.48,1,3.73,3,3.73h9.55q3,0,3-3.27V272.9h4.16v16.42q0,3.27,3,3.27h9.55c2,0,3-1.25,3-3.73V270.81a4.69,4.69,0,0,0-2.23-4l-1.05-1.19v-.74c2.19-2,3.28-3.54,3.28-4.48V247.83A4.69,4.69,0,0,0,484.38,243.81Zm-30.29,17.75h28.8l-2.09,2.23v.76H454.09Zm0,4H480.8v1.19l1.19,1.35h-27.9Zm10.29,24.17c0,.2-.1.29-.3.29h-10v-1.79h10.29Zm0-3.29H454.09v-1.93h10.29Zm0-3.57H454.09v-2.09h10.29Zm0-3.73H454.09v-2.25h10.29Zm0-3.74H454.09V273.2h10.29Zm19.54,14.62h-10c-.2,0-.3-.09-.3-.29v-1.5h10.28Zm0-3.58H473.64v-1.93h10.28Zm0-3.57H473.64v-2.09h10.28Zm0-3.73H473.64v-2.25h10.28Zm0-3.74H473.64V273.2h10.28Zm0-5.36v1.79H473.64v-1.49h-9.26v1.49H454.09v-2.55h29.1C483.31,269.31,483.56,269.56,483.92,270.07Zm0-9.55c0,.16-.2.36-.59.6H454.09V240.38h23.12q.21,0,6.71,6.71Z" transform="translate(-311.95 -233.96)"/><path class="cls-2" d="M464.38,260.07h9.26v-9.39h-9.26Zm2.55-6.72h4.16v4.19h-4.16Z" transform="translate(-311.95 -233.96)"/><path class="cls-3" d="M439,243.37c-3.38-3.68-5.41-5.52-6.12-5.52a6.94,6.94,0,0,0-1.35-.16H416.58q-3,0-5.22,3.15-4.92,4.36-4.92,5.81a4.73,4.73,0,0,0-.16,1.34V282.3a4.73,4.73,0,0,0,2.23,4.17q5.52,6,6.58,6H432a3.86,3.86,0,0,0,3.27-2q6.11-5.65,6.11-6.69a7.37,7.37,0,0,0,.16-1.5V247.69A5.19,5.19,0,0,0,439,243.37ZM409,261h10.28v3H409Zm0,4h10.28v2.55H409Zm0,3.72h10.28v2.55H409Zm0,3.89h10.28v2.23H409Zm0,3.73h10.28v2.25H409Zm23.27,13.58H415.53a15.73,15.73,0,0,1-2.23-2.25h21.18A14.75,14.75,0,0,1,432.24,289.91Zm4-4H411.5a10.09,10.09,0,0,1-1.93-1.93H438.2A10.09,10.09,0,0,1,436.27,285.87Zm2.53-3.57H409v-2.09H438.8Zm-17-5.22V253.21H426v23.87Zm17,1.5H428.66v-2.25H438.8Zm0-3.75H428.66V272.6H438.8Zm0-3.57H428.66v-2.55H438.8Zm0-3.72H428.66V265H438.8Zm0-3.59H428.66v-3H438.8Zm0-3.43H428.66v-10h-9.41v10H409V246.94q0-.19,6.56-6.56h16.71q.19,0,6.56,6.56Z" transform="translate(-311.95 -233.96)"/><path class="cls-4" d="M522.15,303.41H499.62a2.63,2.63,0,0,0-3,3v48.78c0,2,1.09,3,3.27,3h21.93q3.28,0,3.29-3.28v-8.95q0-3.27-3.74-3.27H512v-4.19h9.84q3.28,0,3.29-3.28v-8.95q0-3.28-3.74-3.29H512v-4.16h10q3.15,0,3.15-3.29v-8.81Q525.14,303.41,522.15,303.41Zm-23,13.42h10.28v2.25H499.18Zm0,3.74h10.28v2.23H499.18Zm23.41,15.06q0,.25-.3.3H509.46v9.39h13.13v10q0,.26-.3.3H499.48q-.25,0-.3-.3V334.88h23.41Zm0-1.19H499.18v-3h23.41Zm0-4H499.18v-2.54h23.41Zm0-4.78v1.06H499.18v-2.55h10.28v1.49Zm0-10.44H499.18V313.1h23.41Zm0-3.73H499.18v-1.93h23.41Zm0-3.72H499.18V306h23.11c.2,0,.3.09.3.29Z" transform="translate(-311.95 -233.96)"/><path class="cls-5" d="M389.75,305.05a3.57,3.57,0,0,0-3.28-1.64H370.8a5.59,5.59,0,0,0-1.33.14q-.83,0-5.68,5.23c-1.78,1.33-2.67,2.73-2.67,4.18v36.1q0,1.45,5.52,6.4c1.29,1.8,2.73,2.69,4.32,2.69h16.1q1.47,0,6.42-5.52,2.68-2,2.69-4.16V339.2c0-2.08-1.24-3.13-3.73-3.13h-7.91c-2.48,0-3.72,1.05-3.72,3.13v3.45h-4.33V318.78h4.33v3.42q0,3.14,3.13,3.13H393q3.13,0,3.13-3.13V312.06Q396.17,311,389.75,305.05Zm-19.39.9h16.56a8.67,8.67,0,0,1,1.8,1.79H368.57A8.72,8.72,0,0,1,370.36,306Zm-3.58,3.58h23.71a10.27,10.27,0,0,1,1.95,1.93H364.85A10.14,10.14,0,0,1,366.78,309.53Zm-3.13,7.3h10.28v2.25H363.65Zm0,3.74h10.28v2.23H363.65Zm0,3.57h10.28v2.55H363.65Zm0,3.73h10.28v2.54H363.65Zm0,3.58h10.28v3H363.65Zm19.69,13.87v-6.56h10.3v10.15a29.81,29.81,0,0,1-3.29,3.28c-2,2.29-3.31,3.43-3.88,3.43h-16q-6.86-6.66-6.86-6.85V334.88h10.28v10.44Zm10.3-22.52h-10.3v-2.23h10.3Zm0-3.72h-10.3v-2.25h10.3Zm0-3.89h-30V313.1h30Z" transform="translate(-311.95 -233.96)"/><path class="cls-6" d="M435.18,305.51a3.86,3.86,0,0,0-3.27-2H415.05q-1.05,0-6.58,6a4.73,4.73,0,0,0-2.23,4.17V348a4.73,4.73,0,0,0,.16,1.34q0,1.44,4.92,5.81,2.25,3.15,5.22,3.15h14.91a6.94,6.94,0,0,0,1.35-.16c.71,0,2.74-1.84,6.12-5.52a5.19,5.19,0,0,0,2.53-4.32V313.7a7.37,7.37,0,0,0-.16-1.5Q441.29,311.16,435.18,305.51Zm-19.69.58H432.2a14.75,14.75,0,0,1,2.24,2.25H413.26A15.73,15.73,0,0,1,415.49,306.09Zm-4,4h24.77a10.09,10.09,0,0,1,1.93,1.93H409.53A10.09,10.09,0,0,1,411.46,310.13Zm-2.53,7.29h10.28v2.25H408.93Zm0,3.75h10.28v2.23H408.93Zm0,3.57h10.28v2.55H408.93Zm0,3.72h10.28V331H408.93Zm0,3.59h10.28v3H408.93Zm29.83,17q-6.36,6.57-6.56,6.56H415.49q-6.56-6.36-6.56-6.56V335.48h10.28v10h9.41v-10h10.14Zm-17-6.27V318.92h4.17v23.87Zm17-7.75H428.62v-3h10.14Zm0-4H428.62v-2.55h10.14Zm0-3.72H428.62v-2.55h10.14Zm0-3.89H428.62v-2.23h10.14Zm0-3.73H428.62v-2.25h10.14Zm0-3.88H408.93V313.7h29.83Z" transform="translate(-311.95 -233.96)"/><path class="cls-7" d="M393.52,243.37q-4.95-5.52-6.42-5.52H371c-1.59,0-3,.89-4.32,2.69q-5.52,5-5.52,6.4V283c0,1.45.89,2.85,2.67,4.18,3.23,3.49,5.13,5.23,5.68,5.23a5.59,5.59,0,0,0,1.33.14h15.67a3.57,3.57,0,0,0,3.28-1.64q6.42-6,6.42-7V273.8q0-3.14-3.13-3.13H384q-3.12,0-3.12,3.13v3.42h-4.33V253.35h4.33v3.45c0,2.08,1.24,3.13,3.72,3.13h7.91c2.49,0,3.73-1.05,3.73-3.13v-9.27Q396.21,245.34,393.52,243.37Zm-29.83,18.19H374v3H363.69Zm0,4H374v2.54H363.69Zm0,3.72H374v2.55H363.69Zm0,3.89H374v2.23H363.69Zm0,3.72H374v2.25H363.69ZM387,290.05H370.4a8.72,8.72,0,0,1-1.79-1.79h20.15A8.67,8.67,0,0,1,387,290.05Zm3.57-3.58H366.82a10.14,10.14,0,0,1-1.93-1.93h27.59A10.27,10.27,0,0,1,390.53,286.47Zm-7.15-13.27h10.3v2.23h-10.3Zm0,3.72h10.3v2.25h-10.3Zm10.3,3.89v2.09h-30v-2.09Zm0-23.57h-10.3v-6.56H374v10.44H363.69V247.23q0-.18,6.86-6.85h16c.57,0,1.87,1.14,3.88,3.43a29.81,29.81,0,0,1,3.29,3.28Z" transform="translate(-311.95 -233.96)"/><path class="cls-8" d="M348.66,309.23q-5.28-5.82-6.72-5.82h-16.4a3.37,3.37,0,0,0-3.15,1.5q-6.39,6-6.39,6.85a4.82,4.82,0,0,0-.16,1.34v15.82q0,2.16,2.53,4,4.92,5.51,6.57,5.51h10.59v4.19H331.2v-.16q0-3.14-3.73-3.13h-7.91q-3.72,0-3.72,3v6.26a3.89,3.89,0,0,0,1.93,3.28c3.79,4.08,6,6.12,6.72,6.12a4.67,4.67,0,0,0,1.19.14H341c1.6,0,3-.89,4.33-2.69q5.52-4.95,5.52-6.4V332.65c0-1.46-.89-2.85-2.67-4.19q-4.86-5.22-5.68-5.22a5.62,5.62,0,0,0-1.34-.14h-10v-4.32h4.33v.3q0,3,3.12,3h9.11c2.09,0,3.13-1,3.13-3.14v-5.66A4.69,4.69,0,0,0,348.66,309.23ZM325.08,306h16.56a8.6,8.6,0,0,1,1.8,1.79H323.29A8.76,8.76,0,0,1,325.08,306Zm-3.56,3.58h23.71a10.49,10.49,0,0,1,1.93,1.93h-27.6A10.17,10.17,0,0,1,321.52,309.53Zm-3.15,7.3h10.3v2.25h-10.3Zm0,3.74h10.3v2.23h-10.3Zm30,28.2q0,.18-6.86,6.85h-16c-.57,0-1.87-1.14-3.88-3.43a29.81,29.81,0,0,1-3.29-3.28v-6.86h10.3v3.27h9.4v-9.39h-13c-.14,0-.48-.35-1-1.05h24.31Zm0-16.42v2.09H323.59a25.47,25.47,0,0,1-3-3h26.84Q347.67,331.45,348.36,332.35Zm-1.94-1.94H319.56c-.11,0-.51-.39-1.19-1.19v-1.35h25.52A19.5,19.5,0,0,1,346.42,330.41Zm-4.78-4.78c.15,0,.51.35,1.06,1.06H318.37v-2.55h10.3v1.49Zm6.72-6.55H338.07v-2.25h10.29Zm0-3.89h-30V313.1h30Z" transform="translate(-311.95 -233.96)"/><path class="cls-9" d="M521.89,237.85H500c-2.18,0-3.27,1-3.27,3v48.78a2.63,2.63,0,0,0,3,3h22.53q3,0,3-3.27v-8.81q0-3.28-3.15-3.29h-10v-4.16h9.39q3.73,0,3.74-3.29v-8.95q0-3.29-3.29-3.28h-9.84v-4.19h9.39q3.73,0,3.74-3.27v-9Q525.18,237.85,521.89,237.85ZM499.22,273.2H509.5v2.23H499.22Zm0,3.72H509.5v2.25H499.22Zm23.41,12.84c0,.2-.1.29-.3.29H499.22v-1.79h23.41Zm0-3.29H499.22v-1.93h23.41Zm0-5.66v2.09H499.22v-2.09Zm0-10.44H509.5v1.49H499.22v-2.55h23.41Zm0-2.24H499.22v-2.54h23.41Zm0-3.58H499.22v-3h23.41Zm0-13.87H509.5v9.39h12.83q.3,0,.3.3v.75H499.22V240.68q0-.3.3-.3h22.81q.3,0,.3.3Z" transform="translate(-311.95 -233.96)"/><rect x="51.74" y="35.35" width="10.28" height="2.55"/><rect x="51.74" y="46.85" width="29.99" height="2.09"/><rect x="71.42" y="42.96" width="10.3" height="2.25"/><path d="M393.38,237a7,7,0,0,0-6-3H369.81a8.37,8.37,0,0,0-2.39.46q-1.43,0-6.42,5.52c-2.48,1.91-3.73,4.05-3.73,6.42v37.88a8.13,8.13,0,0,0,.14,1.33q0,2.16,5.38,6.88,3.16,4,6.56,4H388a6.94,6.94,0,0,0,1.35-.16q2,0,7.6-6.26a7.16,7.16,0,0,0,3.14-5.81V272.6a6.91,6.91,0,0,0-1.65-4.47,7.52,7.52,0,0,0-4.16-1.35h-11.5a9.48,9.48,0,0,0-2.39.46v-3.89a14.86,14.86,0,0,0,2.09.3h12.09a14.6,14.6,0,0,0,2.08-.3,5.34,5.34,0,0,0,3.44-5.38V246.36a9.72,9.72,0,0,0-.45-2.4Q399.64,242.73,393.38,237Zm2.83,19.85c0,2.08-1.24,3.13-3.73,3.13h-7.91c-2.48,0-3.72-1.05-3.72-3.13v-3.45h-4.33v23.87h4.33V273.8q0-3.14,3.12-3.13h9.11q3.14,0,3.13,3.13v10.14q0,1-6.42,7a3.57,3.57,0,0,1-3.28,1.64H370.84a5.59,5.59,0,0,1-1.33-.14c-.55,0-2.45-1.74-5.68-5.23-1.78-1.33-2.67-2.73-2.67-4.18v-36.1q0-1.45,5.52-6.4c1.29-1.8,2.73-2.69,4.32-2.69h16.1q1.47,0,6.42,5.52,2.69,2,2.69,4.16Z" transform="translate(-311.95 -233.96)"/><rect x="51.74" y="31.62" width="10.28" height="2.55"/><rect x="51.74" y="27.6" width="10.28" height="2.99"/><path d="M390.39,243.81c-2-2.29-3.31-3.43-3.88-3.43h-16q-6.87,6.66-6.86,6.85v13.89H374V250.68h9.41v6.56h10.3V247.09A29.81,29.81,0,0,0,390.39,243.81Z" transform="translate(-311.95 -233.96)"/><rect x="51.74" y="42.96" width="10.28" height="2.25"/><path d="M370.4,290.05H387a8.67,8.67,0,0,0,1.8-1.79H368.61A8.72,8.72,0,0,0,370.4,290.05Z" transform="translate(-311.95 -233.96)"/><path d="M366.82,286.47h23.71a10.27,10.27,0,0,0,2-1.93H364.89A10.14,10.14,0,0,0,366.82,286.47Z" transform="translate(-311.95 -233.96)"/><rect x="51.74" y="39.23" width="10.28" height="2.23"/><rect x="71.42" y="39.23" width="10.3" height="2.23"/><rect x="116.71" y="38.64" width="10.14" height="2.23"/><rect x="116.71" y="34.75" width="10.14" height="2.55"/><rect x="116.71" y="31.03" width="10.14" height="2.55"/><rect x="116.71" y="27" width="10.14" height="2.99"/><rect x="109.85" y="19.25" width="4.17" height="23.87"/><path d="M432.24,240.38H415.53q-6.55,6.36-6.56,6.56v13.58h10.28v-10h9.41v10H438.8V246.94Q432.44,240.37,432.24,240.38Z" transform="translate(-311.95 -233.96)"/><path d="M438.06,236.2a5.7,5.7,0,0,0-4.78-2.24H414.49a4.68,4.68,0,0,0-1.19.16q-2.15,0-7,5.52c-2.48,2-3.73,4-3.73,6.26v38.49a7.57,7.57,0,0,0,.15,1.34q0,1.81,5.52,6.72c2,2.57,4.11,3.86,6.41,3.86h18.51a6.43,6.43,0,0,0,2.23-.44q1.23,0,6.86-6.11a6.59,6.59,0,0,0,3-5.37V245.9a10.19,10.19,0,0,0-.3-1.94Q444.92,242.55,438.06,236.2Zm3.43,46.1a7.37,7.37,0,0,1-.16,1.5q0,1-6.11,6.69a3.86,3.86,0,0,1-3.27,2H415.09q-1.05,0-6.58-6a4.73,4.73,0,0,1-2.23-4.17V248a4.73,4.73,0,0,1,.16-1.34q0-1.44,4.92-5.81,2.25-3.15,5.22-3.15h14.91a6.94,6.94,0,0,1,1.35.16c.71,0,2.74,1.84,6.12,5.52a5.19,5.19,0,0,1,2.53,4.32Z" transform="translate(-311.95 -233.96)"/><rect x="97.02" y="34.75" width="10.28" height="2.55"/><rect x="97.02" y="31.03" width="10.28" height="2.55"/><rect x="97.02" y="38.64" width="10.28" height="2.23"/><rect x="97.02" y="27" width="10.28" height="2.99"/><path d="M415.53,289.91h16.71a14.75,14.75,0,0,0,2.24-2.25H413.3A15.73,15.73,0,0,0,415.53,289.91Z" transform="translate(-311.95 -233.96)"/><rect x="97.02" y="42.36" width="10.28" height="2.25"/><path d="M411.5,285.87h24.77a10.09,10.09,0,0,0,1.93-1.93H409.57A10.09,10.09,0,0,0,411.5,285.87Z" transform="translate(-311.95 -233.96)"/><rect x="97.02" y="46.25" width="29.83" height="2.09"/><rect x="116.71" y="42.36" width="10.14" height="2.25"/><path d="M473.64,289.76c0,.2.1.29.3.29h10v-1.79H473.64Z" transform="translate(-311.95 -233.96)"/><rect x="161.69" y="46.85" width="10.28" height="2.09"/><rect x="161.69" y="50.57" width="10.28" height="1.93"/><rect x="142.14" y="39.23" width="10.28" height="2.23"/><rect x="142.14" y="50.57" width="10.28" height="1.93"/><rect x="142.14" y="42.96" width="10.28" height="2.25"/><rect x="142.14" y="46.85" width="10.28" height="2.09"/><path d="M454.09,290.05h10c.2,0,.3-.09.3-.29v-1.5H454.09Z" transform="translate(-311.95 -233.96)"/><path d="M477.21,240.38H454.09v20.74h29.24c.39-.24.59-.44.59-.6V247.09Q477.42,240.39,477.21,240.38Zm-3.57,19.69h-9.26v-9.39h9.26Z" transform="translate(-311.95 -233.96)"/><rect x="161.69" y="42.96" width="10.28" height="2.25"/><rect x="154.97" y="19.39" width="4.17" height="4.18"/><path d="M482.29,235.32A8.23,8.23,0,0,0,478,234H453.5a12.87,12.87,0,0,0-2.53.46,5,5,0,0,0-3.29,5.06V291a12.49,12.49,0,0,0,.44,2.53,5.26,5.26,0,0,0,5.08,3h11.93a5.88,5.88,0,0,0,3.89-1.34,5.77,5.77,0,0,0,3.87,1.34h11.93a12.25,12.25,0,0,0,2.53-.46,5.23,5.23,0,0,0,3-5.06V268.87a6.07,6.07,0,0,0-1.2-3.58V265c.53,0,.93-1.14,1.2-3.43v-15.5a12.58,12.58,0,0,0-.44-2.55Q489.9,242.85,482.29,235.32Zm4.32,25.05c0,.94-1.09,2.44-3.28,4.48v.74l1.05,1.19a4.69,4.69,0,0,1,2.23,4v18.05c0,2.48-1,3.73-3,3.73h-9.55q-3,0-3-3.27V272.9h-4.16v16.42q0,3.27-3,3.27h-9.55c-2,0-3-1.25-3-3.73V241.57q0-3.72,3.29-3.72h22.08a4.81,4.81,0,0,1,1.2.14q1,0,6.41,5.82a4.69,4.69,0,0,1,2.23,4Z" transform="translate(-311.95 -233.96)"/><polygon points="168.84 29.83 170.93 27.6 142.14 27.6 142.14 30.59 168.84 30.59 168.84 29.83"/><rect x="161.69" y="39.23" width="10.28" height="2.23"/><path d="M454.09,269.31v2.55h10.29v-1.49h9.26v1.49h10.28v-1.79c-.36-.51-.61-.76-.73-.76Z" transform="translate(-311.95 -233.96)"/><polygon points="168.84 32.82 168.84 31.62 142.14 31.62 142.14 34.17 170.04 34.17 168.84 32.82"/><rect x="187.26" y="42.96" width="10.28" height="2.25"/><path d="M522.33,240.38H499.52q-.25,0-.3.3v20.44h23.41v-.75q0-.25-.3-.3H509.5v-9.39h13.13v-10Q522.63,240.43,522.33,240.38Z" transform="translate(-311.95 -233.96)"/><rect x="187.26" y="46.85" width="23.41" height="2.09"/><polygon points="187.26 37.9 197.55 37.9 197.55 36.4 210.68 36.4 210.68 35.35 187.26 35.35 187.26 37.9"/><rect x="187.26" y="50.57" width="23.41" height="1.93"/><rect x="187.26" y="31.62" width="23.41" height="2.55"/><rect x="187.26" y="27.6" width="23.41" height="2.99"/><path d="M499.22,290.05h23.11c.2,0,.3-.09.3-.29v-1.5H499.22Z" transform="translate(-311.95 -233.96)"/><path d="M523.09,234H498.92a10.34,10.34,0,0,0-2.69.46q-3.18.93-3.43,5.22v51.15a19.6,19.6,0,0,0,.44,2.69,5.41,5.41,0,0,0,5.22,3h24.93a12.59,12.59,0,0,0,2.53-.46c2.08-1,3.13-2.86,3.13-5.66v-11c-.34-2.68-.79-4-1.34-4a9.36,9.36,0,0,0,1.34-4.33V259.63c-.37-2.69-.81-4-1.34-4a9.36,9.36,0,0,0,1.34-4.32V239.94c0-.28-.15-1.23-.44-2.85A5.72,5.72,0,0,0,523.09,234Zm2.09,16.12q0,3.27-3.74,3.27h-9.39v4.19h9.84q3.29,0,3.29,3.28v8.95q0,3.28-3.74,3.29h-9.39v4.16h10q3.15,0,3.15,3.29v8.81q0,3.27-3,3.27H499.66a2.63,2.63,0,0,1-3-3V240.84c0-2,1.09-3,3.27-3h21.93q3.29,0,3.29,3.28Z" transform="translate(-311.95 -233.96)"/><rect x="187.26" y="39.23" width="10.28" height="2.23"/><rect x="26.12" y="82.86" width="10.28" height="2.25"/><path d="M341.64,306H325.08a8.76,8.76,0,0,0-1.79,1.79h20.15A8.6,8.6,0,0,0,341.64,306Z" transform="translate(-311.95 -233.96)"/><rect x="6.42" y="79.14" width="29.99" height="2.09"/><rect x="6.42" y="82.86" width="10.3" height="2.25"/><path d="M345.23,309.53H321.52a10.17,10.17,0,0,0-2,1.93h27.6A10.49,10.49,0,0,0,345.23,309.53Z" transform="translate(-311.95 -233.96)"/><rect x="6.42" y="86.61" width="10.3" height="2.23"/><path d="M323.59,334.44h24.77v-2.09q-.69-.9-.9-.9H320.62A25.47,25.47,0,0,0,323.59,334.44Z" transform="translate(-311.95 -233.96)"/><path d="M325.08,335.93h13v9.39h-9.4v-3.27h-10.3v6.86a29.81,29.81,0,0,0,3.29,3.28c2,2.29,3.31,3.43,3.88,3.43h16q6.86-6.66,6.86-6.85V334.88H324.05C324.6,335.58,324.94,335.93,325.08,335.93Z" transform="translate(-311.95 -233.96)"/><path d="M328.67,324.14h-10.3v2.55H342.7c-.55-.71-.91-1.06-1.06-1.06h-13Z" transform="translate(-311.95 -233.96)"/><path d="M318.37,329.22c.68.8,1.08,1.19,1.19,1.19h26.86a19.5,19.5,0,0,0-2.53-2.54H318.37Z" transform="translate(-311.95 -233.96)"/><path d="M348.66,303q-2.64-3.43-6.12-3.43H324.05a3.76,3.76,0,0,0-1.66.3q-1.78,0-6.69,5.52-3.75,2.88-3.75,6.26v18.65q0,3,3.15,5.81h-.16a5.27,5.27,0,0,0-3,5.08v8.65a6.54,6.54,0,0,0,.46,2.24q0,1.24,6,6.71a7.48,7.48,0,0,0,6.27,3.29h17.6a8.43,8.43,0,0,0,2.39-.46q1.42,0,6.42-5.52,3.72-2.87,3.72-6.42V331.15q0-2.79-3.13-5.66v-.16h.3a5.48,5.48,0,0,0,2.83-5.22v-8.05a5.12,5.12,0,0,0-.14-1.33Q354.63,308.14,348.66,303Zm2.23,16c0,2.1-1,3.14-3.13,3.14h-9.11q-3.12,0-3.12-3v-.3H331.2v4.32h10a5.62,5.62,0,0,1,1.34.14q.82,0,5.68,5.22c1.78,1.34,2.67,2.73,2.67,4.19v16.41q0,1.45-5.52,6.4c-1.29,1.8-2.73,2.69-4.33,2.69H325.68a4.67,4.67,0,0,1-1.19-.14c-.7,0-2.93-2-6.72-6.12a3.89,3.89,0,0,1-1.93-3.28v-6.26q0-3,3.72-3h7.91q3.73,0,3.73,3.13v.16h4.33v-4.19H324.94q-1.65,0-6.57-5.51-2.53-1.87-2.53-4V313.1a4.82,4.82,0,0,1,.16-1.34q0-.84,6.39-6.85a3.37,3.37,0,0,1,3.15-1.5h16.4q1.44,0,6.72,5.82a4.69,4.69,0,0,1,2.23,4Z" transform="translate(-311.95 -233.96)"/><rect x="51.7" y="93.9" width="10.28" height="2.55"/><rect x="51.7" y="90.18" width="10.28" height="2.55"/><rect x="51.7" y="86.61" width="10.28" height="2.23"/><path d="M390.49,309.53H366.78a10.14,10.14,0,0,0-1.93,1.93h27.59A10.27,10.27,0,0,0,390.49,309.53Z" transform="translate(-311.95 -233.96)"/><rect x="71.38" y="82.86" width="10.3" height="2.25"/><rect x="71.38" y="86.61" width="10.3" height="2.23"/><rect x="51.7" y="79.14" width="29.99" height="2.09"/><path d="M396.91,306q-5.62-6.27-7.6-6.26a6.85,6.85,0,0,0-1.35-.16H369.31q-3.39,0-6.56,4-5.37,4.72-5.38,6.88a8.13,8.13,0,0,0-.14,1.33v37.88c0,2.37,1.25,4.51,3.73,6.42q5,5.52,6.42,5.52a8.37,8.37,0,0,0,2.39.46h17.59a7,7,0,0,0,6-3q6.26-5.79,6.26-7a9.72,9.72,0,0,0,.45-2.4V338a5.34,5.34,0,0,0-3.44-5.38,14.6,14.6,0,0,0-2.08-.3H382.44a14.86,14.86,0,0,0-2.09.3v-3.89a9.48,9.48,0,0,0,2.39.46h11.5a7.52,7.52,0,0,0,4.16-1.35,6.91,6.91,0,0,0,1.65-4.47V311.76A7.16,7.16,0,0,0,396.91,306Zm-.74,16.25q0,3.14-3.13,3.13h-9.1q-3.13,0-3.13-3.13v-3.42h-4.33v23.87h4.33V339.2c0-2.08,1.24-3.13,3.72-3.13h7.91c2.49,0,3.73,1.05,3.73,3.13v9.27q0,2.19-2.69,4.16-5,5.52-6.42,5.52H371c-1.59,0-3-.89-4.32-2.69q-5.52-4.95-5.52-6.4V313c0-1.45.89-2.85,2.67-4.18q4.86-5.23,5.68-5.23a5.59,5.59,0,0,1,1.33-.14h15.67a3.57,3.57,0,0,1,3.28,1.64q6.42,6,6.42,7Z" transform="translate(-311.95 -233.96)"/><path d="M386.92,306H370.36a8.72,8.72,0,0,0-1.79,1.79h20.15A8.67,8.67,0,0,0,386.92,306Z" transform="translate(-311.95 -233.96)"/><rect x="51.7" y="97.49" width="10.28" height="2.99"/><path d="M373.93,334.88H363.65v13.89q0,.18,6.86,6.85h16c.57,0,1.87-1.14,3.88-3.43a29.81,29.81,0,0,0,3.29-3.28V338.76h-10.3v6.56h-9.41Z" transform="translate(-311.95 -233.96)"/><rect x="51.7" y="82.86" width="10.28" height="2.25"/><rect x="116.67" y="90.77" width="10.14" height="2.55"/><rect x="116.67" y="98.09" width="10.14" height="2.99"/><rect x="116.67" y="94.5" width="10.14" height="2.55"/><path d="M428.62,345.48h-9.41v-10H408.93v13.58q0,.19,6.56,6.56H432.2q.19,0,6.56-6.56V335.48H428.62Z" transform="translate(-311.95 -233.96)"/><rect x="109.81" y="84.95" width="4.17" height="23.87"/><rect x="116.67" y="87.2" width="10.14" height="2.23"/><rect x="96.98" y="79.73" width="29.83" height="2.09"/><rect x="116.67" y="83.46" width="10.14" height="2.25"/><rect x="96.98" y="94.5" width="10.28" height="2.55"/><path d="M436.23,310.13H411.46a10.09,10.09,0,0,0-1.93,1.93h28.63A10.09,10.09,0,0,0,436.23,310.13Z" transform="translate(-311.95 -233.96)"/><rect x="96.98" y="83.46" width="10.28" height="2.25"/><path d="M432.2,306.09H415.49a15.73,15.73,0,0,0-2.23,2.25h21.18A14.75,14.75,0,0,0,432.2,306.09Z" transform="translate(-311.95 -233.96)"/><rect x="96.98" y="87.2" width="10.28" height="2.23"/><path d="M442.19,306.24q-5.62-6.11-6.86-6.11a6.38,6.38,0,0,0-2.23-.44H414.59c-2.3,0-4.43,1.29-6.41,3.86q-5.52,4.9-5.52,6.72a7.42,7.42,0,0,0-.14,1.34V350.1c0,2.23,1.24,4.31,3.72,6.26q4.88,5.52,7,5.52a4.68,4.68,0,0,0,1.19.16h18.79A5.7,5.7,0,0,0,438,359.8q6.86-6.35,6.86-7.76a10.19,10.19,0,0,0,.3-1.94V311.61A6.59,6.59,0,0,0,442.19,306.24Zm-.74,42.07a5.19,5.19,0,0,1-2.53,4.32c-3.38,3.68-5.41,5.52-6.12,5.52a6.94,6.94,0,0,1-1.35.16H416.54q-3,0-5.22-3.15-4.92-4.37-4.92-5.81a4.73,4.73,0,0,1-.16-1.34V313.7a4.73,4.73,0,0,1,2.23-4.17q5.52-6,6.58-6h16.86a3.86,3.86,0,0,1,3.27,2q6.1,5.65,6.11,6.69a7.37,7.37,0,0,1,.16,1.5Z" transform="translate(-311.95 -233.96)"/><rect x="96.98" y="98.09" width="10.28" height="2.99"/><rect x="96.98" y="90.77" width="10.28" height="2.55"/><rect x="161.65" y="82.86" width="10.28" height="2.25"/><rect x="161.65" y="86.61" width="10.28" height="2.23"/><path d="M473.6,325.63h-9.26v-1.49H454.05v2.55h29.1c.13,0,.37-.25.73-.76v-1.79H473.6Z" transform="translate(-311.95 -233.96)"/><path d="M454.05,334.88v20.74h23.12q.21,0,6.71-6.71V335.48c0-.16-.19-.36-.59-.6Zm19.55,10.44h-9.26v-9.39h9.26Z" transform="translate(-311.95 -233.96)"/><path d="M464.34,306.24c0-.2-.1-.29-.3-.29h-10v1.79h10.29Z" transform="translate(-311.95 -233.96)"/><path d="M487.31,300a12.25,12.25,0,0,0-2.53-.46H472.85a5.77,5.77,0,0,0-3.87,1.34,5.86,5.86,0,0,0-3.89-1.34H453.16a5.26,5.26,0,0,0-5.08,3,12.49,12.49,0,0,0-.44,2.53v51.47a5,5,0,0,0,3.29,5.06,12.87,12.87,0,0,0,2.53.46h24.47a8.23,8.23,0,0,0,4.32-1.36q7.61-7.53,7.61-8.19a12.58,12.58,0,0,0,.44-2.55v-15.5c-.27-2.29-.67-3.43-1.19-3.43v-.3a6.14,6.14,0,0,0,1.19-3.58V305.05A5.23,5.23,0,0,0,487.31,300Zm-.74,25.2a4.69,4.69,0,0,1-2.23,4l-1,1.19v.74c2.19,2,3.28,3.54,3.28,4.48v12.54a4.69,4.69,0,0,1-2.23,4Q479,358,477.93,358a4.81,4.81,0,0,1-1.2.14H454.65q-3.28,0-3.29-3.72V307.14c0-2.48,1-3.73,3-3.73h9.55q3,0,3,3.27V323.1h4.16V306.68q0-3.27,3-3.27h9.55c2,0,3,1.25,3,3.73Z" transform="translate(-311.95 -233.96)"/><path d="M473.6,306.24v1.5h10.28V306h-10C473.7,306,473.6,306,473.6,306.24Z" transform="translate(-311.95 -233.96)"/><rect x="161.65" y="75.57" width="10.28" height="1.93"/><rect x="161.65" y="79.14" width="10.28" height="2.09"/><rect x="142.1" y="75.57" width="10.28" height="1.93"/><rect x="154.93" y="104.5" width="4.17" height="4.18"/><rect x="142.1" y="82.86" width="10.28" height="2.25"/><rect x="142.1" y="79.14" width="10.28" height="2.09"/><polygon points="168.8 95.26 170 93.9 142.1 93.9 142.1 96.45 168.8 96.45 168.8 95.26"/><rect x="142.1" y="86.61" width="10.28" height="2.23"/><polygon points="168.8 98.24 168.8 97.49 142.1 97.49 142.1 100.48 170.9 100.48 168.8 98.24"/><rect x="187.22" y="79.14" width="23.41" height="2.09"/><path d="M525.88,300a12.59,12.59,0,0,0-2.53-.46H498.42a5.41,5.41,0,0,0-5.22,3,19.6,19.6,0,0,0-.44,2.69v51.15q.25,4.29,3.43,5.22a10.34,10.34,0,0,0,2.69.46h24.17a5.72,5.72,0,0,0,5.52-3.13c.29-1.62.44-2.57.44-2.85V344.72a9.36,9.36,0,0,0-1.34-4.32c.53,0,1-1.34,1.34-4V325a9.36,9.36,0,0,0-1.34-4.33c.55,0,1-1.34,1.34-4v-11C529,302.85,528,301,525.88,300Zm-.74,15.5q0,3.28-3.15,3.29H512v4.16h9.39q3.74,0,3.74,3.29v8.95q0,3.29-3.29,3.28H512v4.19h9.39q3.74,0,3.74,3.27v8.95q0,3.28-3.29,3.28H499.92c-2.18,0-3.27-1-3.27-3V306.38a2.63,2.63,0,0,1,3-3h22.53q3,0,3,3.27Z" transform="translate(-311.95 -233.96)"/><rect x="187.22" y="75.57" width="23.41" height="1.93"/><polygon points="197.51 90.18 187.22 90.18 187.22 92.72 210.64 92.72 210.64 91.67 197.51 91.67 197.51 90.18"/><path d="M522.29,306H499.18v1.79h23.41v-1.5C522.59,306,522.49,306,522.29,306Z" transform="translate(-311.95 -233.96)"/><path d="M499.18,355.32q0,.3.3.3h22.81q.3,0,.3-.3v-10H509.46v-9.39h12.83q.3,0,.3-.3v-.75H499.18Z" transform="translate(-311.95 -233.96)"/><rect x="187.22" y="93.9" width="23.41" height="2.55"/><rect x="187.22" y="86.61" width="10.28" height="2.23"/><rect x="187.22" y="82.86" width="10.28" height="2.25"/><rect x="187.22" y="97.49" width="23.41" height="2.99"/><rect x="26.23" y="56.18" width="10.28" height="2.23"/><rect class="cls-10" x="26.23" y="56.18" width="10.28" height="2.23"/><rect x="26.23" y="52.62" width="10.28" height="2.23"/><rect class="cls-10" x="26.23" y="52.62" width="10.28" height="2.23"/><rect x="26.23" y="49.07" width="10.28" height="2.23"/><rect class="cls-10" x="26.23" y="49.07" width="10.28" height="2.23"/><rect x="26.23" y="45.51" width="10.28" height="2.23"/><rect class="cls-10" x="26.23" y="45.51" width="10.28" height="2.23"/><rect x="26.23" y="41.96" width="10.28" height="2.23"/><rect class="cls-10" x="26.23" y="41.96" width="10.28" height="2.23"/><rect x="26.23" y="38.41" width="10.28" height="2.23"/><rect class="cls-10" x="26.23" y="38.41" width="10.28" height="2.23"/><rect x="26.23" y="31.3" width="10.28" height="2.23"/><rect class="cls-10" x="26.23" y="31.3" width="10.28" height="2.23"/><rect x="26.23" y="34.85" width="10.28" height="2.23"/><rect x="26.23" y="27.74" width="10.28" height="2.23"/><rect class="cls-10" x="26.23" y="27.74" width="10.28" height="2.23"/><rect x="26.23" y="24.19" width="10.28" height="2.23"/><rect class="cls-10" x="26.23" y="24.19" width="10.28" height="2.23"/><rect x="26.23" y="20.63" width="10.28" height="2.23"/><rect class="cls-10" x="26.23" y="20.63" width="10.28" height="2.23"/><rect x="26.23" y="17.08" width="10.28" height="2.23"/><rect x="26.23" y="13.52" width="10.28" height="2.23"/><rect x="26.23" y="9.97" width="10.28" height="2.23"/><rect class="cls-10" x="26.23" y="9.97" width="10.28" height="2.23"/><rect x="26.23" y="6.42" width="10.28" height="2.23"/><rect class="cls-10" x="26.23" y="6.42" width="10.28" height="2.23"/><rect x="6.43" y="56.18" width="10.28" height="2.23"/><rect class="cls-11" x="6.43" y="56.18" width="10.28" height="2.23"/><rect x="6.43" y="52.64" width="10.28" height="2.23"/><rect class="cls-11" x="6.43" y="52.64" width="10.28" height="2.23"/><rect x="6.43" y="49.1" width="10.28" height="2.23"/><rect class="cls-11" x="6.43" y="49.1" width="10.28" height="2.23"/><rect x="6.43" y="45.56" width="10.28" height="2.23"/><rect class="cls-11" x="6.43" y="45.56" width="10.28" height="2.23"/><rect x="6.43" y="42.02" width="10.28" height="2.23"/><rect class="cls-11" x="6.43" y="42.02" width="10.28" height="2.23"/><rect x="6.43" y="38.48" width="10.28" height="2.23"/><rect class="cls-11" x="6.43" y="38.48" width="10.28" height="2.23"/><rect x="6.43" y="34.94" width="10.28" height="2.23"/><rect class="cls-11" x="6.43" y="34.94" width="10.28" height="2.23"/><rect x="6.43" y="27.86" width="10.28" height="2.23"/><rect class="cls-11" x="6.43" y="27.86" width="10.28" height="2.23"/><rect x="6.43" y="31.4" width="10.28" height="2.23"/><rect class="cls-11" x="6.43" y="31.4" width="10.28" height="2.23"/><rect x="6.43" y="24.32" width="10.28" height="2.23"/><rect x="6.43" y="20.78" width="10.28" height="2.23"/><rect x="6.43" y="17.24" width="10.28" height="2.23"/><rect x="6.43" y="13.7" width="10.28" height="2.23"/><rect class="cls-11" x="6.43" y="13.7" width="10.28" height="2.23"/><rect x="6.43" y="10.16" width="10.28" height="2.23"/><rect x="6.43" y="6.42" width="10.28" height="2.23"/><rect class="cls-11" x="6.43" y="6.42" width="10.28" height="2.23"/></svg>